<mxfile host="app.diagrams.net" modified="2021-03-12T09:47:03.139Z" agent="5.0 (X11; Linux x86_64) AppleWebKit/537.36 (KHTML, like Gecko) Chrome/89.0.4389.82 Safari/537.36" etag="VZXIIk-2Gy9ODmBB9_e0" version="14.4.4" type="github">
  <diagram id="uVz92Lz5rSTjqvfcquft" name="Page-1">
    <mxGraphModel dx="2012" dy="1839" grid="1" gridSize="10" guides="1" tooltips="1" connect="1" arrows="1" fold="1" page="1" pageScale="1" pageWidth="827" pageHeight="1169" background="none" math="0" shadow="0">
      <root>
        <mxCell id="0" />
        <mxCell id="1" parent="0" />
        <mxCell id="BUyG89UXvX42eCoVACj3-1" value="CXP" style="ellipse;shape=cloud;whiteSpace=wrap;html=1;shadow=1;" parent="1" vertex="1">
          <mxGeometry x="280" y="160" width="250" height="190" as="geometry" />
        </mxCell>
        <mxCell id="BUyG89UXvX42eCoVACj3-3" value="石家庄新石机房" style="image;html=1;image=img/lib/clip_art/networking/Router_Icon_128x128.png;" parent="1" vertex="1">
          <mxGeometry x="100" y="270" width="50" height="40" as="geometry" />
        </mxCell>
        <mxCell id="BUyG89UXvX42eCoVACj3-4" value="南京诚意" style="image;html=1;image=img/lib/clip_art/networking/Router_Icon_128x128.png;opacity=80;" parent="1" vertex="1">
          <mxGeometry x="480" y="275" width="70" height="30" as="geometry" />
        </mxCell>
        <mxCell id="BUyG89UXvX42eCoVACj3-9" value="石家庄缆信机房" style="image;html=1;image=img/lib/clip_art/networking/Router_Icon_128x128.png;sketch=0;opacity=80;" parent="1" vertex="1">
          <mxGeometry x="270" y="270" width="50" height="40" as="geometry" />
        </mxCell>
        <mxCell id="BUyG89UXvX42eCoVACj3-11" value="杭州诚亿" style="image;html=1;image=img/lib/clip_art/networking/Router_Icon_128x128.png;opacity=80;" parent="1" vertex="1">
          <mxGeometry x="389" y="330" width="50" height="35" as="geometry" />
        </mxCell>
        <mxCell id="BUyG89UXvX42eCoVACj3-12" value="" style="endArrow=none;html=1;entryX=0.5;entryY=1;entryDx=0;entryDy=0;" parent="1" target="BUyG89UXvX42eCoVACj3-11" edge="1">
          <mxGeometry width="50" height="50" relative="1" as="geometry">
            <mxPoint x="414" y="480" as="sourcePoint" />
            <mxPoint x="200" y="590" as="targetPoint" />
          </mxGeometry>
        </mxCell>
        <mxCell id="BUyG89UXvX42eCoVACj3-13" value="" style="endArrow=none;html=1;exitX=1;exitY=0.25;exitDx=0;exitDy=0;entryX=0;entryY=0.25;entryDx=0;entryDy=0;" parent="1" source="BUyG89UXvX42eCoVACj3-3" target="BUyG89UXvX42eCoVACj3-9" edge="1">
          <mxGeometry width="50" height="50" relative="1" as="geometry">
            <mxPoint x="130" y="525" as="sourcePoint" />
            <mxPoint x="270" y="525" as="targetPoint" />
            <Array as="points" />
          </mxGeometry>
        </mxCell>
        <mxCell id="BUyG89UXvX42eCoVACj3-15" style="edgeStyle=orthogonalEdgeStyle;orthogonalLoop=1;jettySize=auto;html=1;exitX=0.5;exitY=1;exitDx=0;exitDy=0;" parent="1" source="BUyG89UXvX42eCoVACj3-11" target="BUyG89UXvX42eCoVACj3-11" edge="1">
          <mxGeometry relative="1" as="geometry" />
        </mxCell>
        <mxCell id="BUyG89UXvX42eCoVACj3-18" value="客户设备" style="image;html=1;image=img/lib/clip_art/networking/Switch_128x128.png;shadow=1;" parent="1" vertex="1">
          <mxGeometry x="680" y="310" width="60" height="55" as="geometry" />
        </mxCell>
        <mxCell id="BUyG89UXvX42eCoVACj3-19" value="" style="endArrow=none;html=1;entryX=0;entryY=0.5;entryDx=0;entryDy=0;" parent="1" source="BUyG89UXvX42eCoVACj3-4" target="BUyG89UXvX42eCoVACj3-18" edge="1">
          <mxGeometry width="50" height="50" relative="1" as="geometry">
            <mxPoint x="370" y="600" as="sourcePoint" />
            <mxPoint x="420" y="560" as="targetPoint" />
          </mxGeometry>
        </mxCell>
        <mxCell id="duXdBVLSe_I4uM9As9lt-4" value="跳纤两对，诚亿提供" style="edgeLabel;html=1;align=center;verticalAlign=middle;resizable=0;points=[];" vertex="1" connectable="0" parent="BUyG89UXvX42eCoVACj3-19">
          <mxGeometry x="-0.3697" relative="1" as="geometry">
            <mxPoint x="15" as="offset" />
          </mxGeometry>
        </mxCell>
        <mxCell id="BUyG89UXvX42eCoVACj3-20" value="客户设备" style="image;html=1;image=img/lib/clip_art/networking/Switch_128x128.png;shadow=1;" parent="1" vertex="1">
          <mxGeometry x="-140" y="262.5" width="60" height="55" as="geometry" />
        </mxCell>
        <mxCell id="BUyG89UXvX42eCoVACj3-21" value="" style="endArrow=none;html=1;exitX=1;exitY=0.5;exitDx=0;exitDy=0;entryX=0;entryY=0.5;entryDx=0;entryDy=0;" parent="1" source="BUyG89UXvX42eCoVACj3-20" target="BUyG89UXvX42eCoVACj3-3" edge="1">
          <mxGeometry width="50" height="50" relative="1" as="geometry">
            <mxPoint x="30" y="350" as="sourcePoint" />
            <mxPoint x="140" y="350" as="targetPoint" />
          </mxGeometry>
        </mxCell>
        <mxCell id="duXdBVLSe_I4uM9As9lt-5" value="跳纤两对，机房(慧日信息)提供" style="edgeLabel;html=1;align=center;verticalAlign=middle;resizable=0;points=[];" vertex="1" connectable="0" parent="BUyG89UXvX42eCoVACj3-21">
          <mxGeometry x="-0.425" y="-2" relative="1" as="geometry">
            <mxPoint x="35" as="offset" />
          </mxGeometry>
        </mxCell>
        <mxCell id="duXdBVLSe_I4uM9As9lt-1" value="" style="endArrow=none;html=1;exitX=1;exitY=0.75;exitDx=0;exitDy=0;" edge="1" parent="1" source="BUyG89UXvX42eCoVACj3-3">
          <mxGeometry width="50" height="50" relative="1" as="geometry">
            <mxPoint x="160" y="300" as="sourcePoint" />
            <mxPoint x="270" y="300" as="targetPoint" />
          </mxGeometry>
        </mxCell>
        <mxCell id="duXdBVLSe_I4uM9As9lt-3" value="杭州金华客户设备" style="image;html=1;image=img/lib/clip_art/networking/Switch_128x128.png;shadow=1;" vertex="1" parent="1">
          <mxGeometry x="384" y="470" width="60" height="55" as="geometry" />
        </mxCell>
        <mxCell id="duXdBVLSe_I4uM9As9lt-6" value="双路裸纤都是慧日提供" style="text;html=1;align=center;verticalAlign=middle;resizable=0;points=[];autosize=1;" vertex="1" parent="1">
          <mxGeometry x="140" y="245" width="140" height="20" as="geometry" />
        </mxCell>
        <mxCell id="duXdBVLSe_I4uM9As9lt-7" value="408机房托管1U，放楼间缆ODF，&lt;br&gt;408机房跳纤两对&lt;br&gt;上海熠博信息技术有限公司报障电话：4008656123" style="text;html=1;align=center;verticalAlign=middle;resizable=0;points=[];autosize=1;" vertex="1" parent="1">
          <mxGeometry x="450" y="365" width="290" height="50" as="geometry" />
        </mxCell>
        <mxCell id="duXdBVLSe_I4uM9As9lt-8" value="507-408房间楼间缆两队。诚亿提供" style="text;html=1;align=center;verticalAlign=middle;resizable=0;points=[];autosize=1;" vertex="1" parent="1">
          <mxGeometry x="480" y="345" width="210" height="20" as="geometry" />
        </mxCell>
        <mxCell id="duXdBVLSe_I4uM9As9lt-9" value="407机房和508机房归属？" style="text;html=1;align=center;verticalAlign=middle;resizable=0;points=[];autosize=1;fillColor=#fad7ac;strokeColor=#b46504;" vertex="1" parent="1">
          <mxGeometry x="500" y="415" width="150" height="20" as="geometry" />
        </mxCell>
        <mxCell id="duXdBVLSe_I4uM9As9lt-12" value="石家庄迅捷机房" style="image;html=1;image=img/lib/clip_art/networking/Router_Icon_128x128.png;sketch=0;opacity=80;" vertex="1" parent="1">
          <mxGeometry x="270" y="100" width="50" height="30" as="geometry" />
        </mxCell>
        <mxCell id="duXdBVLSe_I4uM9As9lt-15" value="" style="endArrow=none;html=1;" edge="1" parent="1" source="duXdBVLSe_I4uM9As9lt-12" target="BUyG89UXvX42eCoVACj3-9">
          <mxGeometry width="50" height="50" relative="1" as="geometry">
            <mxPoint x="370" y="330" as="sourcePoint" />
            <mxPoint x="420" y="280" as="targetPoint" />
          </mxGeometry>
        </mxCell>
        <mxCell id="duXdBVLSe_I4uM9As9lt-16" value="" style="endArrow=none;html=1;entryX=0.25;entryY=1;entryDx=0;entryDy=0;" edge="1" parent="1" target="duXdBVLSe_I4uM9As9lt-12">
          <mxGeometry width="50" height="50" relative="1" as="geometry">
            <mxPoint x="283" y="268" as="sourcePoint" />
            <mxPoint x="420" y="280" as="targetPoint" />
          </mxGeometry>
        </mxCell>
        <mxCell id="duXdBVLSe_I4uM9As9lt-18" value="江苏泰州" style="image;html=1;image=img/lib/clip_art/networking/Switch_128x128.png;shadow=1;" vertex="1" parent="1">
          <mxGeometry x="670" y="190" width="60" height="55" as="geometry" />
        </mxCell>
        <mxCell id="duXdBVLSe_I4uM9As9lt-19" value="石家庄常山" style="image;html=1;image=img/lib/clip_art/networking/Switch_128x128.png;shadow=1;" vertex="1" parent="1">
          <mxGeometry x="70" y="87.5" width="60" height="55" as="geometry" />
        </mxCell>
        <mxCell id="duXdBVLSe_I4uM9As9lt-20" value="" style="endArrow=none;html=1;entryX=0;entryY=0.5;entryDx=0;entryDy=0;exitX=1;exitY=0.5;exitDx=0;exitDy=0;" edge="1" parent="1" source="duXdBVLSe_I4uM9As9lt-19" target="duXdBVLSe_I4uM9As9lt-12">
          <mxGeometry width="50" height="50" relative="1" as="geometry">
            <mxPoint x="170" y="192.5" as="sourcePoint" />
            <mxPoint x="220" y="142.5" as="targetPoint" />
          </mxGeometry>
        </mxCell>
        <mxCell id="duXdBVLSe_I4uM9As9lt-21" value="" style="endArrow=none;html=1;" edge="1" parent="1" source="duXdBVLSe_I4uM9As9lt-18" target="BUyG89UXvX42eCoVACj3-4">
          <mxGeometry width="50" height="50" relative="1" as="geometry">
            <mxPoint x="140" y="124.99999999999977" as="sourcePoint" />
            <mxPoint x="280" y="124.99999999999977" as="targetPoint" />
          </mxGeometry>
        </mxCell>
        <mxCell id="duXdBVLSe_I4uM9As9lt-22" value="dl-14407 白山云-石家庄常山-南京诚意2-1G-vlan746&lt;br&gt;dl-14403 白山云-石家庄常山-南京诚意1-1G-vlan830&lt;br&gt;dl-14401 白山云-石家庄常山-金华-10G-迁移-vlan2924&lt;br&gt;dl-14397 白山云-石家庄金石-南京诚意2-1G-计费-vlan829&lt;br&gt;dl-11794 白山云-石家庄金石-南京诚意1-10G-计费vlan745&amp;nbsp;&lt;br&gt;dl-9068 白山云-石家庄金石-杭州交运-金华-10Gvlan3563" style="text;html=1;align=left;verticalAlign=middle;resizable=0;points=[];autosize=1;" vertex="1" parent="1">
          <mxGeometry x="-10" y="-90" width="330" height="90" as="geometry" />
        </mxCell>
      </root>
    </mxGraphModel>
  </diagram>
</mxfile>
